<svg xmlns="http://www.w3.org/2000/svg" viewBox="0 0 200 200" role="img" aria-label="Buck">
  <title>Buck</title>
  <desc>The Buck crest — a circle containing a stylized buck head with antlers, beneath a small crescent moon.</desc>

  <circle cx="100" cy="100" r="92" fill="none" stroke="#3a5a40" stroke-width="3"/>
  <circle cx="100" cy="100" r="84" fill="none" stroke="#3a5a40" stroke-width="0.9"/>

  <g transform="translate(100,28)">
    <circle r="6" fill="#3a5a40"/>
    <circle r="5" cx="2" cy="-0.7" fill="#f4ecd8"/>
  </g>
  <g fill="#3a5a40">
    <circle cx="74" cy="34" r="1.3"/>
    <circle cx="126" cy="34" r="1.3"/>
    <circle cx="64" cy="48" r="1"/>
    <circle cx="136" cy="48" r="1"/>
  </g>

  <g fill="#3a5a40">
    <path d="M 100 78 C 86 80, 76 92, 76 108 C 76 122, 84 134, 92 142 C 96 146, 99 152, 100 158 C 101 152, 104 146, 108 142 C 116 134, 124 122, 124 108 C 124 92, 114 80, 100 78 Z"/>
    <path d="M 78 98 C 71 93, 66 88, 64 82 C 64 92, 69 102, 76 106 Z"/>
    <path d="M 122 98 C 129 93, 134 88, 136 82 C 136 92, 131 102, 124 106 Z"/>
  </g>
  <g stroke="#3a5a40" stroke-width="2.6" stroke-linecap="round" fill="none">
    <path d="M 86 82 C 78 72, 70 65, 62 60"/>
    <path d="M 72 68 C 66 62, 58 56, 50 53"/>
    <path d="M 76 76 C 68 71, 58 68, 48 68"/>
    <path d="M 82 78 C 76 70, 70 62, 64 54"/>
    <path d="M 114 82 C 122 72, 130 65, 138 60"/>
    <path d="M 128 68 C 134 62, 142 56, 150 53"/>
    <path d="M 124 76 C 132 71, 142 68, 152 68"/>
    <path d="M 118 78 C 124 70, 130 62, 136 54"/>
  </g>
  <g fill="#f4ecd8">
    <ellipse cx="92" cy="110" rx="1.9" ry="2.6"/>
    <ellipse cx="108" cy="110" rx="1.9" ry="2.6"/>
  </g>
</svg>