<svg xmlns="http://www.w3.org/2000/svg" viewBox="0 0 32 32">
  <rect width="32" height="32" fill="#f4ecd8"/>
  <circle cx="16" cy="16" r="12" fill="none" stroke="#3a5a40" stroke-width="2"/>
  <path d="M16 8.5 C12.2 8.5, 9.5 11.5, 9.5 15 C9.5 18.5, 12 21.5, 16 24 C20 21.5, 22.5 18.5, 22.5 15 C22.5 11.5, 19.8 8.5, 16 8.5 Z" fill="#3a5a40"/>
  <path d="M11.5 13 C10 12.2, 9 11, 8.7 9.5 C9 11.2, 10 13, 11.5 14.2 Z" fill="#f4ecd8"/>
  <path d="M20.5 13 C22 12.2, 23 11, 23.3 9.5 C23 11.2, 22 13, 20.5 14.2 Z" fill="#f4ecd8"/>
  <circle cx="14" cy="15.5" r="0.8" fill="#f4ecd8"/>
  <circle cx="18" cy="15.5" r="0.8" fill="#f4ecd8"/>
</svg>