<svg xmlns="http://www.w3.org/2000/svg" viewBox="0 0 200 240" role="img" aria-label="Buck">
  <title>Buck</title>
  <desc>Circular crest with a stylized buck head, the wordmark BUCK below, and the tagline NIGHT SHIFT.</desc>

  <circle cx="100" cy="100" r="78" fill="none" stroke="#3a5a40" stroke-width="2.5"/>
  <circle cx="100" cy="100" r="71" fill="none" stroke="#3a5a40" stroke-width="0.8"/>

  <g transform="translate(100,30)">
    <circle r="5" fill="#3a5a40"/>
    <circle r="4.2" cx="1.6" cy="-0.6" fill="#f4ecd8"/>
  </g>
  <g fill="#3a5a40">
    <circle cx="78" cy="35" r="1.1"/>
    <circle cx="122" cy="35" r="1.1"/>
    <circle cx="69" cy="46" r="0.8"/>
    <circle cx="131" cy="46" r="0.8"/>
  </g>

  <g fill="#3a5a40">
    <path d="M 100 70 C 88 72, 80 82, 80 96 C 80 108, 86 118, 92 124 C 95 128, 98 132, 100 138 C 102 132, 105 128, 108 124 C 114 118, 120 108, 120 96 C 120 82, 112 72, 100 70 Z"/>
    <path d="M 82 88 C 76 84, 72 80, 70 76 C 70 84, 74 92, 80 96 Z"/>
    <path d="M 118 88 C 124 84, 128 80, 130 76 C 130 84, 126 92, 120 96 Z"/>
  </g>
  <g stroke="#3a5a40" stroke-width="2.2" stroke-linecap="round" fill="none">
    <path d="M 88 74 C 82 66, 76 60, 70 56"/>
    <path d="M 76 62 C 72 58, 66 54, 60 52"/>
    <path d="M 80 68 C 74 64, 66 62, 58 62"/>
    <path d="M 84 70 C 80 64, 76 58, 72 50"/>
    <path d="M 112 74 C 118 66, 124 60, 130 56"/>
    <path d="M 124 62 C 128 58, 134 54, 140 52"/>
    <path d="M 120 68 C 126 64, 134 62, 142 62"/>
    <path d="M 116 70 C 120 64, 124 58, 128 50"/>
  </g>
  <g fill="#f4ecd8">
    <ellipse cx="93" cy="98" rx="1.6" ry="2.2"/>
    <ellipse cx="107" cy="98" rx="1.6" ry="2.2"/>
  </g>

  <text x="100" y="208" text-anchor="middle" font-family="Georgia, 'Source Serif 4', serif" font-style="italic" font-size="36" fill="#1c1611">Buck</text>
  <text x="100" y="228" text-anchor="middle" font-family="ui-monospace, 'JetBrains Mono', Menlo, monospace" font-size="9" fill="#8b7e68" letter-spacing="0.32em">NIGHT&#160;&#160;SHIFT</text>
</svg>